<mxfile host="app.diagrams.net" modified="2024-07-17T06:46:06.002Z" agent="Mozilla/5.0 (Macintosh; Intel Mac OS X 10_15_7) AppleWebKit/537.36 (KHTML, like Gecko) Chrome/126.0.0.0 Safari/537.36 Edg/126.0.0.0" version="24.6.4" etag="rmVTdAX8bNQkjBbQuCEd" type="github">
  <diagram name="第 1 页" id="IxdUAaIlxtq6js6nrn1g">
    <mxGraphModel>
      <root>
        <mxCell id="0" />
        <mxCell id="1" parent="0" />
      </root>
    </mxGraphModel>
  </diagram>
</mxfile>
